<svg xmlns="http://www.w3.org/2000/svg" width="1365" height="768" viewBox="0 0 1365 768">
<g>
<path d="M 242.09 747.61 C240.25,745.39 239.39,576.36 241.20,573.00 C242.38,570.81 243.32,570.46 248.75,570.20 C257.72,569.77 259.00,570.74 259.00,577.98 C259.00,581.22 259.40,584.13 259.89,584.43 C261.36,585.34 266.98,582.91 268.06,580.89 C269.21,578.74 278.75,573.67 287.00,570.82 C294.13,568.36 308.42,567.48 318.37,568.89 C327.23,570.15 339.18,575.25 347.82,581.47 C357.91,588.72 368.03,603.90 371.51,617.00 C374.69,628.95 372.86,650.00 367.86,658.94 C360.32,672.43 355.05,678.99 346.71,685.30 C334.67,694.42 323.15,698.00 305.93,698.00 C289.62,698.00 277.49,694.10 268.11,685.86 C263.82,682.09 259.07,680.74 258.93,683.25 C258.90,683.94 258.93,698.37 259.00,715.32 C259.09,737.76 258.80,746.53 257.94,747.57 C256.32,749.53 243.71,749.56 242.09,747.61 ZM 319.68 678.69 C322.53,677.94 327.45,675.79 330.61,673.91 C352.71,660.80 360.24,634.27 348.46,611.00 C343.05,600.32 330.51,589.80 320.33,587.40 C311.34,585.29 298.17,585.59 291.55,588.07 C280.31,592.27 267.23,603.57 263.86,612.00 C263.31,613.37 262.10,615.33 261.18,616.35 C259.83,617.85 259.49,620.38 259.44,629.36 C259.34,647.22 262.69,656.53 273.00,667.01 C278.77,672.88 284.52,676.13 294.50,679.16 C301.21,681.20 310.76,681.02 319.68,678.69 ZM 393.31 747.75 C392.86,747.06 392.38,707.70 392.22,660.28 C391.95,574.82 391.96,574.04 393.97,572.03 C395.54,570.46 397.31,570.00 401.81,570.00 C409.62,570.00 410.86,571.12 411.21,578.49 C411.58,586.23 413.10,586.57 420.48,580.56 C431.89,571.26 440.30,568.61 458.50,568.56 C472.94,568.52 476.86,569.42 489.92,575.82 C495.37,578.50 499.44,581.56 505.28,587.40 C511.99,594.11 514.05,597.03 518.50,606.09 C523.44,616.15 523.81,617.45 524.45,626.67 C525.41,640.76 524.11,647.75 518.22,660.08 C509.34,678.67 494.02,691.37 474.28,696.52 C466.46,698.55 448.44,698.47 441.15,696.37 C434.59,694.48 423.40,689.02 420.50,686.31 C419.40,685.27 417.41,683.67 416.07,682.74 C411.18,679.35 411.00,680.48 411.00,714.92 C411.00,738.23 410.68,746.92 409.80,747.80 C408.15,749.45 394.38,749.41 393.31,747.75 ZM 473.46 677.97 C481.72,675.01 483.97,673.74 489.99,668.60 C501.20,659.03 506.59,645.90 505.80,630.06 C504.90,611.95 495.21,598.14 477.17,589.29 C471.88,586.69 470.66,586.50 458.95,586.50 C446.66,586.50 446.26,586.57 439.71,589.89 C427.21,596.24 415.68,609.43 412.87,620.62 C412.29,622.92 411.97,629.52 412.16,635.28 C412.49,645.39 412.65,646.06 416.86,654.23 C422.84,665.85 427.91,670.87 439.72,676.87 C448.57,681.36 462.67,681.82 473.46,677.97 ZM 24.26 695.98 C11.53,692.82 4.00,684.14 4.00,672.62 C4.00,665.61 4.67,664.00 7.59,664.00 C9.43,664.00 10.53,665.11 12.45,668.91 C17.30,678.47 31.14,683.21 44.71,679.95 C52.78,678.01 59.82,671.39 61.10,664.53 C62.14,658.92 60.88,649.99 58.53,646.41 C56.91,643.93 45.80,635.68 33.50,627.83 C29.10,625.02 24.03,621.77 22.23,620.61 C19.04,618.55 11.46,609.69 9.15,605.32 C8.52,604.11 8.00,599.37 8.00,594.77 C8.00,587.12 8.28,585.95 11.25,580.97 C14.01,576.36 15.57,574.98 21.40,572.01 C27.87,568.72 28.89,568.50 37.92,568.50 C46.92,568.50 47.99,568.73 54.52,572.00 C59.32,574.41 61.92,576.39 62.85,578.35 C65.65,584.25 65.53,602.55 62.70,601.42 C62.04,601.15 59.47,598.22 57.00,594.89 C51.05,586.89 48.54,585.67 37.96,585.57 C26.25,585.47 24.00,586.92 24.00,594.54 C24.00,599.37 24.39,600.44 27.25,603.44 C29.04,605.32 35.45,609.46 41.50,612.64 C58.79,621.73 69.81,630.09 74.91,637.98 C80.11,646.02 81.56,653.30 80.11,664.05 C78.75,674.17 76.34,678.58 67.78,686.59 C56.13,697.49 42.32,700.47 24.26,695.98 ZM 144.53 696.93 C138.38,695.91 131.75,693.44 126.50,690.22 C120.55,686.58 111.28,677.18 107.98,671.43 C102.19,661.38 101.73,657.41 101.27,613.44 C100.78,567.21 100.06,570.49 110.63,570.52 C114.10,570.53 117.36,570.98 117.88,571.52 C118.41,572.07 119.10,588.62 119.46,609.50 C120.14,649.12 121.02,658.28 124.67,663.66 C125.94,665.52 127.26,668.20 127.61,669.60 C127.99,671.09 129.34,672.55 130.88,673.12 C132.32,673.66 135.61,675.19 138.20,676.53 C140.78,677.87 146.07,679.49 149.95,680.13 C171.04,683.61 190.44,671.82 195.88,652.21 C197.86,645.09 198.04,641.79 198.26,608.80 C198.44,582.07 198.81,572.79 199.74,571.86 C201.31,570.29 212.01,569.59 214.00,570.92 C215.30,571.79 215.54,579.99 215.78,632.57 C215.99,677.25 215.76,693.59 214.91,694.61 C213.42,696.41 203.03,696.47 200.61,694.70 C199.63,693.99 198.51,691.85 198.13,689.96 C197.16,685.23 195.12,685.18 188.29,689.72 C177.09,697.17 161.39,699.75 144.53,696.93 ZM 588.50 697.27 C578.57,695.94 567.17,691.53 560.25,686.33 C555.97,683.12 550.35,674.22 547.11,665.51 L 544.50 658.50 L 544.79 590.50 C545.11,513.47 544.38,519.47 553.32,520.28 C562.00,521.07 561.35,515.79 561.58,587.72 C561.72,633.32 562.12,652.78 562.97,656.00 C566.48,669.26 576.26,677.92 589.52,679.52 C592.81,679.92 596.06,680.70 596.75,681.25 C597.51,681.85 598.00,684.70 598.00,688.50 C598.00,696.34 595.92,698.27 588.50,697.27 ZM 661.50 696.58 C642.13,693.37 625.02,680.72 616.07,663.00 C610.71,652.39 609.50,646.60 609.51,631.50 C609.52,616.31 610.80,611.05 617.08,600.50 C630.33,578.24 654.46,566.17 681.22,568.40 C693.49,569.42 708.33,576.16 718.42,585.28 C723.39,589.78 724.33,591.17 724.33,593.97 C724.33,596.58 723.49,598.07 720.42,600.83 C718.26,602.77 705.15,615.37 691.27,628.85 C677.39,642.32 664.97,654.05 663.68,654.92 C661.15,656.62 652.98,665.57 650.48,669.39 C648.40,672.56 649.31,674.26 654.41,676.74 C663.94,681.37 678.68,682.13 689.24,678.54 C696.20,676.17 706.22,670.02 709.80,665.91 C711.52,663.93 714.67,659.46 716.79,655.97 C718.91,652.47 721.13,649.46 721.72,649.26 C723.26,648.75 724.34,661.57 723.50,670.25 C722.98,675.58 722.23,678.12 720.65,679.86 C717.04,683.83 702.62,692.93 696.59,695.05 C689.18,697.66 672.39,698.39 661.50,696.58 ZM 661.58 633.47 C675.28,619.97 687.66,608.30 689.08,607.53 C693.05,605.37 699.00,598.26 699.00,595.67 C699.00,590.24 690.60,586.57 675.38,585.37 C664.65,584.52 656.13,587.01 646.45,593.84 C635.60,601.50 631.70,606.62 628.08,618.00 C626.21,623.87 626.09,625.62 626.91,636.00 C628.02,650.16 630.88,658.00 634.95,658.00 C635.88,658.00 647.87,646.96 661.58,633.47 ZM 1000.50 697.05 C993.38,696.48 991.18,695.76 980.50,690.46 C962.67,681.62 953.93,672.11 947.47,654.50 C944.74,647.08 944.53,645.49 944.52,632.50 C944.50,619.75 944.75,617.77 947.31,610.32 C952.78,594.39 970.13,577.75 987.14,572.13 C1005.18,566.18 1025.52,567.52 1039.28,575.59 C1042.49,577.46 1045.51,579.00 1046.00,579.00 C1046.49,579.00 1049.61,581.52 1052.94,584.61 C1061.76,592.77 1061.56,593.90 1049.25,605.59 C1043.89,610.69 1038.82,615.54 1038.00,616.38 C1031.40,623.06 1009.43,645.00 997.98,656.35 C990.29,663.97 984.01,670.72 984.02,671.35 C984.04,673.43 985.43,674.71 990.54,677.37 C996.59,680.52 1010.20,681.85 1019.13,680.17 C1032.21,677.71 1047.48,666.96 1051.47,657.41 C1054.15,650.99 1056.07,648.50 1057.09,650.12 C1058.63,652.55 1058.17,673.35 1056.48,677.38 C1053.59,684.31 1036.55,694.29 1023.81,696.53 C1015.13,698.06 1013.59,698.10 1000.50,697.05 ZM 973.43 658.43 C974.29,657.56 975.00,656.55 975.00,656.17 C975.00,655.24 982.50,647.57 995.09,635.63 C1000.82,630.20 1009.55,621.84 1014.50,617.05 C1019.45,612.26 1025.36,606.92 1027.63,605.18 C1032.82,601.21 1035.65,595.71 1034.17,592.47 C1032.49,588.78 1023.17,585.76 1011.76,585.23 C995.47,584.46 995.28,584.52 977.15,596.50 L 969.58 601.50 L 965.64 611.50 C962.28,620.02 961.64,622.91 961.26,631.00 C960.86,639.74 961.07,641.18 963.94,649.00 C965.65,653.67 967.25,658.06 967.50,658.75 C968.11,660.50 971.55,660.31 973.43,658.43 ZM 1310.77 696.61 C1307.07,695.95 1302.78,694.48 1301.24,693.34 C1299.70,692.20 1296.58,690.32 1294.30,689.15 C1287.79,685.83 1286.00,682.52 1286.00,673.79 C1286.00,668.93 1286.49,665.71 1287.43,664.44 C1289.11,662.17 1290.21,662.92 1292.81,668.08 C1294.82,672.11 1303.10,678.61 1308.00,680.03 C1315.37,682.16 1319.83,682.27 1326.52,680.46 C1341.62,676.37 1348.34,664.15 1343.42,649.71 C1341.76,644.84 1341.62,644.72 1323.00,631.79 C1319.43,629.31 1314.06,626.05 1311.08,624.54 C1304.47,621.19 1295.49,612.88 1292.81,607.63 C1291.13,604.33 1290.88,602.17 1291.16,593.44 C1291.55,581.60 1292.50,579.63 1300.41,574.26 C1306.64,570.04 1311.81,568.61 1321.00,568.56 C1327.15,568.52 1329.56,569.01 1334.39,571.27 C1344.07,575.79 1346.00,579.18 1346.00,591.62 C1346.00,599.68 1344.81,599.83 1338.63,592.60 C1332.35,585.25 1324.81,582.69 1315.14,584.62 C1306.74,586.30 1304.31,594.99 1310.03,602.88 C1313.31,607.40 1315.74,609.12 1326.50,614.49 C1333.06,617.76 1339.72,622.26 1349.74,630.16 C1352.06,632.00 1355.66,636.42 1357.74,640.00 L 1361.50 646.50 L 1361.43 658.07 C1361.34,671.67 1359.81,675.92 1352.51,682.88 C1350.03,685.24 1348.00,687.58 1348.00,688.08 C1348.00,689.54 1334.93,695.66 1329.20,696.87 C1322.82,698.23 1319.60,698.18 1310.77,696.61 ZM 1259.50 695.90 C1257.30,695.40 1251.45,693.58 1246.50,691.85 C1233.40,687.27 1226.80,680.18 1220.65,664.07 C1218.56,658.60 1218.53,657.36 1218.51,593.13 L 1218.50 527.75 L 1220.88 525.88 C1223.99,523.43 1232.17,523.29 1234.13,525.65 C1235.18,526.92 1235.53,531.99 1235.61,547.53 C1235.67,558.65 1236.04,568.25 1236.42,568.87 C1236.89,569.63 1242.27,570.00 1252.87,570.00 C1271.61,570.00 1272.10,570.21 1272.77,578.24 C1273.16,582.91 1272.90,584.10 1271.11,585.89 C1269.15,587.85 1267.93,588.00 1254.16,588.00 C1240.79,588.00 1239.14,588.19 1237.57,589.92 C1236.00,591.66 1235.85,594.61 1235.95,621.03 C1236.07,650.45 1236.89,659.01 1240.33,667.25 C1241.95,671.12 1242.82,671.89 1250.00,675.82 C1253.97,677.99 1257.53,679.03 1262.79,679.55 C1271.39,680.40 1273.00,681.91 1273.00,689.17 C1273.00,696.40 1269.49,698.15 1259.50,695.90 ZM 1179.84 695.25 C1178.92,695.05 1177.91,694.21 1177.59,693.37 C1177.27,692.54 1177.00,675.81 1176.98,656.18 C1176.95,616.87 1176.42,612.18 1170.86,602.33 C1163.99,590.15 1150.84,584.03 1134.14,585.22 C1124.23,585.93 1117.54,589.35 1108.76,598.19 C1098.24,608.78 1098.00,610.09 1098.00,656.61 C1098.00,683.27 1097.69,692.91 1096.80,693.80 C1095.01,695.59 1082.37,695.39 1081.66,693.56 C1081.36,692.77 1081.03,665.25 1080.94,632.39 C1080.74,563.84 1079.88,569.53 1090.23,570.23 C1093.38,570.45 1096.28,570.94 1096.66,571.33 C1097.05,571.72 1097.62,573.89 1097.94,576.16 C1098.68,581.62 1100.78,582.92 1104.59,580.28 C1118.94,570.35 1124.15,568.61 1139.50,568.65 C1151.58,568.69 1155.40,569.65 1167.65,575.71 C1173.37,578.55 1175.82,580.54 1179.92,585.68 C1192.45,601.40 1193.51,605.27 1193.47,635.00 C1193.41,678.61 1192.99,692.77 1191.72,693.77 C1190.37,694.84 1182.46,695.82 1179.84,695.25 ZM 749.81 693.88 C748.76,693.23 748.45,681.36 748.25,633.29 C748.09,595.98 748.36,572.94 748.96,572.00 C749.68,570.89 751.53,570.56 756.14,570.73 C761.23,570.92 762.83,571.42 764.98,573.48 C766.43,574.87 768.10,576.00 768.70,576.00 C769.30,576.00 773.10,574.43 777.15,572.52 C790.31,566.29 803.80,566.70 817.95,573.76 C823.65,576.60 826.14,578.52 828.30,581.75 C832.20,587.60 834.39,587.37 841.66,580.38 C848.35,573.94 855.48,570.43 865.22,568.76 C874.63,567.14 886.34,568.88 894.78,573.16 C905.49,578.57 916.00,591.14 916.00,598.53 C916.00,600.30 916.67,603.66 917.50,606.00 C918.74,609.52 919.00,617.38 919.00,651.43 C919.00,682.12 918.69,692.91 917.80,693.80 C916.18,695.42 904.55,695.38 903.24,693.75 C902.59,692.95 902.29,679.63 902.41,657.00 C902.61,615.77 901.71,604.55 897.71,598.50 C892.45,590.54 891.66,589.74 887.12,587.73 C880.34,584.73 866.27,584.75 859.71,587.76 C854.81,590.01 848.66,595.98 843.75,603.23 L 841.01 607.29 L 841.18 649.96 C841.27,673.43 841.01,693.17 840.61,693.82 C839.73,695.24 828.19,695.40 826.00,694.02 C824.72,693.21 824.42,686.77 823.95,649.79 C823.56,618.83 823.04,605.41 822.13,602.68 C820.66,598.24 815.30,591.96 810.38,588.93 C806.05,586.25 793.48,585.21 786.30,586.93 C779.58,588.54 770.09,596.24 766.89,602.68 L 764.50 607.50 L 764.71 650.21 C764.87,682.79 764.64,693.11 763.71,693.68 C762.04,694.72 751.42,694.88 749.81,693.88 ZM 312.50 485.52 C295.49,483.17 272.44,475.69 258.22,467.90 C235.89,455.67 215.62,438.64 201.96,420.62 C193.73,409.78 192.87,408.52 189.92,403.00 C188.31,399.98 186.58,396.83 186.10,396.00 C178.95,383.92 171.03,362.74 168.33,348.44 C166.15,336.90 165.84,298.23 167.83,287.00 C170.81,270.29 176.08,253.82 181.44,244.50 C182.71,242.30 184.09,239.38 184.51,238.00 C185.66,234.23 201.22,211.48 208.28,203.24 C215.64,194.66 229.30,182.99 244.00,172.74 C250.88,167.94 267.47,159.24 275.00,156.48 C286.34,152.32 300.89,147.89 306.43,146.91 C333.68,142.06 345.91,141.89 368.50,146.00 C381.24,148.33 383.95,148.91 390.50,150.78 C397.94,152.89 420.71,162.97 425.15,166.12 C426.61,167.15 428.09,168.00 428.43,168.00 C429.41,168.00 437.20,173.17 440.78,176.21 C442.58,177.74 445.73,179.85 447.78,180.90 C453.07,183.61 470.85,200.71 477.31,209.29 C493.66,231.02 507.91,261.77 510.99,282.00 C511.46,285.02 512.36,290.88 513.01,295.00 C514.44,304.06 513.84,336.01 512.09,344.00 C511.43,347.02 510.41,351.75 509.82,354.50 C506.58,369.62 497.53,391.66 489.40,404.29 C473.21,429.43 450.93,451.16 429.97,462.28 C426.41,464.16 420.67,467.33 417.22,469.32 C410.51,473.17 385.12,482.15 376.00,483.89 C359.09,487.11 329.55,487.87 312.50,485.52 ZM 370.00 427.36 C382.11,424.46 399.74,416.48 409.87,409.31 C418.71,403.05 430.15,391.93 435.62,384.28 C442.84,374.17 450.68,358.00 453.32,347.79 C457.77,330.53 458.00,328.99 458.00,316.24 C458.00,285.45 446.38,256.76 425.21,235.26 C409.12,218.92 393.50,209.60 372.48,203.80 C360.59,200.53 360.34,200.50 339.00,200.57 C315.64,200.64 315.52,200.66 296.00,208.02 C284.03,212.54 266.44,223.82 257.03,233.00 C252.28,237.64 243.43,248.47 240.28,253.50 C235.50,261.15 228.47,276.65 226.00,285.00 C224.79,289.12 223.39,293.80 222.90,295.40 C221.30,300.56 221.81,332.19 223.59,338.70 C228.50,356.66 228.81,357.53 233.73,366.81 C240.60,379.78 246.11,387.55 254.56,396.19 C269.02,410.97 288.86,422.29 309.50,427.52 C325.57,431.59 352.63,431.52 370.00,427.36 ZM 871.50 486.05 C855.32,484.18 834.93,478.00 818.50,470.00 C786.50,454.40 768.73,438.52 748.54,407.50 C738.82,392.55 731.45,376.57 728.02,363.00 C727.53,361.08 726.44,356.72 725.59,353.31 C723.04,343.04 720.72,312.03 721.89,303.66 C722.44,299.72 723.17,293.35 723.52,289.50 C724.51,278.49 732.34,253.15 738.51,240.99 C739.94,238.16 744.45,230.82 748.52,224.68 C768.95,193.89 787.60,177.46 820.29,161.49 C835.62,154.00 840.45,152.45 867.50,146.35 C878.41,143.89 913.07,143.81 923.50,146.22 C927.35,147.11 935.22,148.87 941.00,150.14 C947.46,151.56 954.77,154.03 960.00,156.57 C964.67,158.83 970.30,161.26 972.50,161.97 C974.70,162.68 977.17,163.83 978.00,164.54 C978.83,165.25 983.00,167.89 987.28,170.41 C1002.06,179.13 1018.14,192.70 1030.40,206.78 C1037.71,215.19 1037.51,215.77 1021.48,231.90 C1014.04,239.38 1007.07,246.97 1005.98,248.77 C1003.87,252.26 1000.02,254.33 997.47,253.35 C996.61,253.02 995.07,251.12 994.05,249.13 C991.63,244.45 972.13,225.47 965.00,220.87 C954.71,214.23 949.51,211.45 940.50,207.79 C924.32,201.21 920.03,200.51 896.00,200.50 C876.29,200.50 873.87,200.69 867.00,202.83 C825.93,215.58 799.63,239.09 785.01,276.10 C779.37,290.38 777.91,297.56 777.28,314.06 C776.86,325.23 777.18,327.90 781.03,345.00 C782.65,352.20 788.44,366.69 791.82,372.00 C803.94,391.03 809.83,397.98 821.00,406.42 C836.05,417.79 847.65,423.53 865.00,428.20 C872.72,430.29 875.51,430.48 895.50,430.39 C914.64,430.29 918.54,430.00 925.50,428.13 C948.35,422.00 969.94,409.47 984.72,393.78 C997.89,379.80 998.75,379.00 1000.56,379.00 C1002.13,379.00 1033.25,410.02 1035.33,413.65 C1036.43,415.58 1034.78,420.11 1031.85,423.17 C1030.56,424.53 1026.64,428.89 1023.15,432.86 C1019.65,436.84 1014.48,441.86 1011.65,444.02 C1008.82,446.18 1004.03,449.89 1001.00,452.26 C993.74,457.95 990.58,459.87 977.50,466.54 C958.69,476.14 948.75,479.72 927.50,484.53 C919.41,486.36 882.81,487.35 871.50,486.05 ZM 1196.00 485.52 C1182.68,483.64 1177.16,482.39 1164.00,478.31 C1144.33,472.20 1121.62,459.21 1106.09,445.19 C1096.30,436.36 1082.00,421.90 1082.00,420.84 C1082.00,420.38 1080.51,418.32 1078.70,416.25 C1074.74,411.76 1067.80,400.10 1065.42,393.94 C1064.47,391.50 1062.95,388.60 1062.03,387.50 C1060.30,385.42 1058.94,382.27 1054.70,370.50 C1051.06,360.41 1050.26,357.50 1048.57,348.00 C1045.27,329.49 1044.81,319.51 1046.43,301.93 C1048.53,279.20 1052.81,263.35 1061.40,246.50 C1063.36,242.65 1064.97,239.04 1064.98,238.48 C1065.01,237.16 1072.95,224.60 1080.30,214.26 C1093.51,195.67 1119.36,174.64 1143.00,163.24 C1169.40,150.51 1179.59,147.66 1208.92,144.78 C1230.46,142.66 1266.70,147.86 1281.21,155.14 C1283.25,156.16 1285.41,157.00 1286.01,157.00 C1288.15,157.00 1310.62,168.32 1318.49,173.37 C1327.21,178.96 1346.01,195.31 1352.69,203.12 C1355.00,205.82 1357.58,208.73 1358.44,209.58 C1359.30,210.44 1360.00,212.80 1360.00,214.82 C1360.00,218.28 1358.88,219.59 1341.25,236.72 C1330.94,246.75 1321.82,255.70 1321.00,256.61 C1320.18,257.53 1315.75,261.93 1311.17,266.39 C1277.58,299.12 1163.00,414.28 1163.00,415.32 C1163.00,419.10 1170.67,422.91 1187.35,427.41 C1212.34,434.15 1241.55,432.45 1267.50,422.73 C1275.04,419.91 1288.96,412.10 1296.49,406.47 C1303.97,400.87 1321.00,384.10 1321.00,382.33 C1321.00,380.43 1325.69,378.77 1327.82,379.91 C1328.75,380.40 1332.13,383.67 1335.32,387.16 C1338.51,390.64 1345.37,397.82 1350.56,403.10 C1362.57,415.32 1362.62,415.71 1353.10,427.18 C1346.74,434.86 1339.78,441.53 1332.96,446.50 C1327.65,450.38 1322.47,454.41 1320.00,456.60 C1316.10,460.06 1297.35,469.95 1288.50,473.22 C1275.45,478.03 1259.98,482.91 1252.50,484.56 C1242.73,486.71 1208.55,487.29 1196.00,485.52 ZM 1132.35 368.19 C1137.93,362.79 1147.22,353.91 1153.00,348.45 C1158.78,342.99 1190.16,311.85 1222.75,279.25 C1278.80,223.19 1282.00,219.80 1282.00,216.44 C1282.00,212.46 1280.54,211.56 1268.00,207.80 C1244.79,200.86 1242.83,200.56 1220.50,200.54 C1199.70,200.52 1199.40,200.55 1189.00,203.72 C1165.14,211.00 1144.21,224.73 1128.36,243.50 C1123.34,249.45 1116.00,260.17 1116.00,261.55 C1116.00,261.78 1114.61,264.79 1112.92,268.23 C1104.24,285.88 1100.23,304.39 1101.30,321.80 C1101.98,332.93 1106.69,352.47 1110.49,359.98 C1111.88,362.72 1113.95,367.33 1115.09,370.23 C1117.51,376.37 1118.69,378.00 1120.73,378.00 C1121.54,378.00 1126.77,373.59 1132.35,368.19 ZM 17.80 482.08 C13.56,481.76 9.51,480.91 8.80,480.20 C7.74,479.14 7.50,446.31 7.50,306.20 C7.50,145.94 7.63,132.77 9.26,123.33 C11.46,110.56 14.26,101.46 18.71,92.50 C36.14,57.46 70.85,31.14 109.73,23.49 C121.75,21.13 164.96,19.75 167.00,21.67 C168.27,22.85 168.49,27.29 168.42,49.97 C168.37,69.22 168.01,77.28 167.16,78.31 C166.23,79.43 161.68,79.86 146.23,80.27 C124.94,80.83 119.36,81.81 108.32,86.95 C94.77,93.26 85.43,101.38 77.80,113.50 C70.08,125.77 66.35,142.51 70.80,144.89 C71.85,145.46 88.48,145.88 111.05,145.92 C158.11,146.01 165.64,146.47 167.45,149.39 C169.40,152.55 169.49,200.94 167.55,203.60 C166.23,205.41 163.82,205.52 118.36,206.00 L 70.56 206.50 L 69.29 209.00 C68.29,210.98 68.03,239.64 68.01,346.21 C68.00,478.37 67.96,480.95 66.07,481.96 C64.03,483.06 31.65,483.14 17.80,482.08 ZM 545.33 482.07 C539.73,481.76 534.82,481.16 534.40,480.74 C533.99,480.32 533.70,405.67 533.76,314.84 C533.86,165.02 534.02,149.55 535.47,148.10 C536.81,146.75 540.51,146.45 558.78,146.18 C582.67,145.83 590.24,146.38 592.50,148.64 C593.62,149.76 594.00,152.53 594.00,159.60 C594.00,167.11 594.31,169.18 595.51,169.64 C596.34,169.96 600.05,168.42 603.76,166.23 C619.00,157.22 641.27,148.03 648.00,147.99 C649.38,147.99 652.75,147.26 655.50,146.37 C662.71,144.06 688.86,143.99 699.00,146.26 C706.57,147.95 726.87,154.77 731.82,157.29 C752.21,167.66 763.00,174.96 763.00,178.39 C763.00,181.17 758.98,187.09 752.40,194.00 C746.96,199.72 739.95,208.63 736.49,214.24 C733.70,218.76 729.84,219.11 726.18,215.19 C721.45,210.13 702.34,202.41 690.66,200.83 C680.20,199.43 661.01,200.31 654.50,202.50 C637.47,208.22 635.19,209.57 621.61,221.95 C608.78,233.63 601.98,244.96 596.46,263.86 L 593.94 272.50 L 593.99 376.37 C594.03,452.93 593.74,480.61 592.90,481.62 C591.99,482.71 587.98,482.96 573.63,482.82 C563.66,482.72 550.92,482.38 545.33,482.07 Z" fill="rgb(75, 44, 32)"/>
</g>
</svg>